<svg width="600" height="600" xmlns="http://www.w3.org/2000/svg">
 <!-- Created with Method Draw - http://github.com/duopixel/Method-Draw/ -->

 <g>
  <title>background</title>
  <rect x="-1" y="-1" width="602" height="602" id="canvas_background" fill="none"/>
  <g id="canvasGrid" display="none">
   <rect id="svg_2" width="100%" height="100%" x="0" y="0" stroke-width="0" fill="url(#gridpattern)"/>
  </g>
 </g>
 <g>
  <title>Layer 1</title>
  <ellipse fill="none" stroke-width="20" cx="290.20166" cy="298.21467" id="svg_1" rx="148" ry="129" stroke="#000000"/>
  <line fill="none" stroke-width="20" x1="206.42726" y1="225.60672" x2="286.83586" y2="430.63571" id="svg_3" stroke-linejoin="undefined" stroke-linecap="undefined" transform="rotate(-3.8761661052703857 246.6315307617168,328.1212158203127) " stroke="#000"/>
  <line fill="none" stroke-width="20" stroke-opacity="null" fill-opacity="null" x1="136.96523" y1="286.6069" x2="303.79629" y2="217.6069" id="svg_4" stroke-linejoin="null" stroke-linecap="null" transform="rotate(-2.881113290786743 220.38076782226372,252.10688781738259) " stroke="#000"/>
  <line fill="none" stroke="#000" stroke-width="20" stroke-opacity="null" fill-opacity="null" x1="308.50072" y1="250.17729" x2="380.50072" y2="409.17729" id="svg_7" stroke-linejoin="undefined" stroke-linecap="undefined" transform="rotate(-1.3565185070037842 344.50073242187244,329.6773071289053) "/>
  <ellipse stroke="#000" fill="none" stroke-width="20" fill-opacity="null" cx="357.06959" cy="243.23493" id="svg_9" rx="55.61613" ry="50.40003" transform="rotate(65.5756607055664 357.069580078125,243.23492431640628) "/>
  <path fill="none" stroke="#ff0000" stroke-width="20" id="svg_13" d="m140.67829,256.47636c1,0 2,0 3,0c0,0 1.02675,0.22975 2,0c2.17625,-0.51375 2.08025,-0.31075 5,-1c2.17625,-0.51375 4.29289,-1.29289 5,-2c1.41422,-1.41422 3.15224,-0.23463 5,-1c2.61313,-1.0824 2,-2 3,-2c3,0 5.80566,-1.44841 10,-3c3.867,-1.4305 7.31,-1.33749 10,-3c1.203,-0.7435 3.87857,-1.49345 7,-2c2.96127,-0.48055 5.01291,0.16019 6,0c3.12143,-0.50655 4.82376,-2.48625 7,-3c0.97324,-0.22975 2.69345,-1.4588 4,-2c0.92389,-0.38269 3.85272,-1.1731 5,-2c1.814,-1.30745 3.82376,-2.48625 6,-3c0.97324,-0.22975 1.41528,-0.18875 2,-1c1.84903,-2.56537 5.15225,-0.23463 7,-1c2.61313,-1.0824 3.87857,-3.49345 7,-4c1.97418,-0.32036 4.04291,-1.71022 5,-2c3.45084,-1.04483 5.15927,-1.61064 8,-3c3.23892,-1.58411 7.78381,-1.42006 11,-4c1.74423,-1.39917 5.15225,-2.23463 7,-3c2.61313,-1.0824 2.87857,-3.49345 6,-4c0.98709,-0.16019 3.38687,-2.9176 6,-4c1.84775,-0.76537 2,-1 4,-2c2,-1 3.76108,-2.41589 7,-4c2.84073,-1.38936 5.13202,-1.75531 9,-4c3.11847,-1.80972 7.64886,-0.19577 10,-4c0.52573,-0.85065 -0.30655,-1.4588 1,-2c0.92389,-0.38269 2.297,-0.61383 5,-3c1.67633,-1.47984 3,-1 5,-2c2,-1 4,-3 5,-4c1,-1 3.31076,-1.53493 5,-3c2.38895,-2.07193 7,-2 9,-4c0,0 1,0 2,-1c2,-2 4.02676,-2.77025 5,-3c2.17624,-0.51375 3,-2 3,-2c0,-1 1,-1 2,-2c0,0 1,-1 2,-2c1,-1 1,-2 1,-2c0,-1 0.29291,-1.29289 1,-2c0.70709,-0.70711 0.29291,-1.29289 1,-2c0.70709,-0.70711 1,0 1,-1l0,0l1,-1"/>
  <polyline fill="none" stroke="#ff0000" stroke-width="20" points="151.67829132080078,252.47635984420776 150.67829132080078,252.47635984420776 149.67829132080078,252.47635984420776 " id="svg_14" stroke-linecap="round"/>
  <path fill="none" stroke="#ff0000" stroke-width="20" id="svg_15" d="m147.67829,252.47636c0,0 -0.29289,-0.29289 -1,-1c-0.70711,-0.70711 -2.29289,0.70711 -3,0c-0.70711,-0.70711 -1.29289,-0.29289 -2,-1c-0.70711,-0.70711 0,-2 0,-3c0,-1 0.29289,-1.29289 1,-2c0.70711,-0.70711 1,-1 1,-2c0,-1 1.07613,-0.61731 2,-1c1.30656,-0.5412 2,-2 2,-3c0,0 0,-1 1,-1c1,0 1.29289,-0.29289 2,-1c0.70711,-0.70711 1,-1 1,-2c0,0 0.69344,-0.4588 2,-1c0.92387,-0.38269 1.29289,0.70711 2,0c0.70711,-0.70711 0,-1 0,-2c0,-1 1,-1 2,-2c0,0 -0.70711,-1.29289 0,-2c0.70711,-0.70711 1,-1 1,-2c0,0 1,0 1,-1c0,-1 -0.70711,-1.29289 0,-2c0.70711,-0.70711 1,-1 2,-1c0,0 0.29289,-1.29289 1,-2c0.70711,-0.70711 0.70711,-1.70711 0,-1c-0.70711,0.70711 -0.58578,0.58578 -2,2c-0.70711,0.70711 -0.69344,0.4588 -2,1c-1.84776,0.76537 -3,0 -3,1c0,0 0,-1 0,-1c0,-1 -0.52573,-2.14935 0,-3c1.17557,-1.90211 1.09789,-1.82443 3,-3c0.85065,-0.52573 0.61731,-1.07613 1,-2c0.5412,-1.30656 2,-2 2,-3c0,-1 0.52573,0.14935 0,1c-1.17557,1.90211 -1.69255,2.186 -3,4c-0.8269,1.14726 -2,2 -3,3c-2,2 -2,3 -3,3c-1,0 -0.69344,1.4588 -2,2c-0.92387,0.38269 -0.29289,1.29289 -1,2c-0.70711,0.70711 -1,0 -1,0c2,-1 1.94853,-1.29869 3,-3c1.17557,-1.90211 3.47427,-2.14935 4,-3c1.17557,-1.90211 2.07613,-1.61731 3,-2c1.30656,-0.5412 1.29289,-2.29289 2,-3c0.70711,-0.70711 2,-1 2,-1c1,-1 1.29289,-1.29289 2,-2c0.70711,-0.70711 2.29289,-1.29289 3,-2c0.70711,-0.70711 1.58578,-0.58578 3,-2c1.41422,-1.41422 1.0535,-1.5405 3,-2c2.17624,-0.51375 2.69345,-2.4588 4,-3c0.92389,-0.38269 1.01291,-0.83981 2,-1c3.12143,-0.50655 3.29291,-1.29289 4,-2c0.70709,-0.70711 2,-1 4,-2c4,-2 5,-3 6,-3c1,0 2.01498,-0.75563 4,-1c4.09222,-0.50377 8.87857,-3.49345 12,-4c1.97418,-0.32036 1.29291,-0.29289 2,-1c0.70709,-0.70711 3.0535,0.4595 5,0c2.17624,-0.51375 3.0535,-1.5405 5,-2c2.17624,-0.51375 5.07843,-0.78986 8,-2c2.06586,-0.85571 5.08582,-1.42043 7,-2c3.45084,-1.04483 6.07843,-1.78986 9,-3c2.06586,-0.85571 2.93414,-1.14429 5,-2c2.92157,-1.21014 6.186,-1.69255 8,-3c1.14728,-0.8269 4.02676,-0.77025 5,-1c2.17624,-0.51375 3.07611,-0.61731 4,-1c2.61313,-1.0824 4,-3 7,-3c2,0 4.15225,-0.23463 6,-1c2.61313,-1.0824 5.05414,-2.43268 8,-3c5.28799,-1.01837 6.82376,-3.48625 9,-4c1.9465,-0.4595 5,-1 7,-2c2,-1 3.29291,-0.29289 4,-1c0.70709,-0.70711 3.02676,-0.77025 4,-1c2.17624,-0.51375 2.69345,-1.4588 4,-2c1.84775,-0.76537 3,-2 6,-2c1,0 4,0 5,-1c1,-1 2.0535,-1.5405 4,-2c2.17624,-0.51375 4,-1 5,-1c1,0 2.02676,0.22975 3,0c2.17624,-0.51375 4,-1 4,-1c0,-1 1,-1 2,-1l1,0l1,0"/>
  <path fill="none" stroke="#ff0000" stroke-width="20" id="svg_16" d="m166.67829,223.47636c-1,0 -1.69344,0.4588 -3,1c-0.92387,0.38269 -3.07843,0.78986 -6,2c-2.06586,0.85571 -1.47427,1.14935 -2,2c-2.35114,3.80423 -5.87856,2.49345 -9,3c-1.97418,0.32036 -2,1 -2,0c0,-1 0.29289,-0.29289 1,-1c0.70711,-0.70711 0,0 0,0c0,1 0,2 0,3c0,1 0,4 0,7l0,2"/>
  <path fill="none" stroke="#ff0000" stroke-width="20" id="svg_17" d="m171.67829,231.47636c0,-1 1.05664,-0.91753 4,-3c4.0817,-2.88786 7.77637,-6.40894 13,-9c4.82428,-2.39297 8.48691,-4.08052 11,-6c2.86536,-2.18855 3.33749,-3.31001 5,-6c0.7435,-1.203 2,-1 3,-3c0,0 0.07965,0.16797 -4,2c-9.82513,4.41212 -21,8 -30,11c-6,2 -10,4 -10,5c0,1 4.02521,-0.88133 9,-2c8.04532,-1.80911 15.29291,-4.70711 16,-4c0.70709,0.70711 -1,2 -6,6c-5,4 -7,5 -7,5c6,-1 15.90869,-5.39227 28,-8c10.92905,-2.35707 19.74673,-5.37134 24,-8c1.9021,-1.17557 3.06601,-1.87766 5,-3c3.11847,-1.80972 5.59399,-3.513 8,-5c2.69,-1.66251 4.07611,-1.61731 5,-2c1.30655,-0.5412 1,-2 2,-2c0,0 1.02676,-0.77025 2,-1c2.17624,-0.51375 4.88153,-2.19028 8,-4c1.93399,-1.12234 6,-2 6,-2c1,-1 3.02582,-1.67964 5,-2c3.12143,-0.50655 5.93164,-3.07341 7,-4c3.77728,-3.27602 8.21167,-3.71413 11,-6c2.18735,-1.7932 4.41528,-2.18875 5,-3c1.84903,-2.56537 4.82376,-2.48625 7,-3c0.97324,-0.22975 5,-1 9,-2l4,-1l4,-1l0,-1"/>
  <path fill="none" stroke="#ff0000" stroke-width="20" id="svg_18" d="m273.67829,182.47636c0,2 -4.17697,3.34518 -9,5c-6.34512,2.17706 -14.1181,3.3754 -21,5c-6.15536,1.45308 -12.71201,3.98163 -18,5c-2.94586,0.56732 -8.92578,0.49756 -14,1c-3.98053,0.39415 -5.07611,-0.38269 -6,0c-2.61313,1.0824 -6.13202,3.75531 -10,6c-3.11847,1.80972 -5.5387,4.60643 -8,6c-3.58792,2.03145 -6.41885,4.41885 -8,6c-1.58115,1.58115 -3,3 -4,4c-1,1 -1,2 -2,3l-2,3l-1,1l-1,0"/>
  <path fill="none" stroke="#ff0000" stroke-width="20" id="svg_19" d="m222.67829,215.47636c1,0 1,0 5,-1c4,-1 8.28912,-2.04869 13,-4c3.33109,-1.37979 4.93414,-4.14429 7,-5c2.92157,-1.21014 3.87857,-2.49345 7,-3c1.97418,-0.32036 2.29291,0.70711 3,0c1.41422,-1.41422 1,-2 2,-2c1,0 2,0 4,0c0,0 1,0 2,0c1,0 2.70709,-0.29289 2,-1c-0.70709,-0.70711 -2.69345,2.4588 -4,3c-1.84775,0.76537 -5.61105,1.92807 -8,4c-1.68924,1.46507 -2.29291,1.29289 -3,2c-0.70709,0.70711 -1.31,1.33749 -4,3c-1.203,0.7435 -4.01721,0.9335 -8,2c-7.03235,1.8831 -12.76993,3.54863 -17,5c-4.82303,1.65482 -10.21539,2.11894 -16,4c-4.25293,1.38298 -6.82376,3.48625 -9,4c-2.91974,0.68925 -7.11237,0.54706 -12,2c-5.16193,1.53448 -6.29291,2.29289 -7,3c-0.70709,0.70711 -2.58578,-1.41422 -4,0c-0.70709,0.70711 0,2 -1,2c-2,0 -3,0 -3,0c-3,1 -4,1 -5,1l-1,0l2,0"/>
  <path fill="none" stroke="#ff0000" stroke-width="20" id="svg_20" d="m315.67829,176.47636c0,-2 2.3764,-1.08031 4,-5c0.38269,-0.92387 1.34619,-0.70546 3,-3c1.30746,-1.814 1.29291,-2.29289 2,-3c0.70709,-0.70711 1.29291,-1.29289 2,-2c0.70709,-0.70711 0.69345,-1.4588 2,-2c0.92389,-0.38269 1.29291,-0.29289 2,-1c0.70709,-0.70711 0.69345,-1.4588 2,-2c0.92389,-0.38269 2,0 3,0l0,-1"/>
  <path fill="none" stroke="#ff0000" stroke-width="20" id="svg_21" d="m299.67829,182.47636c-1,0 -1.186,0.69255 -3,2c-1.14728,0.8269 -2,2 -3,2c0,0 -0.82376,0.48625 -3,1c-1.9465,0.4595 -2.29291,0.29289 -3,1c-0.70709,0.70711 0,1 0,2l-2,0l-1,0l0,0"/>
  <path fill="none" stroke="#ff0000" stroke-width="20" id="svg_22" d="m179.67829,230.47636c0,1 -1.02676,0.77025 -2,1c-2.17624,0.51375 -6.07843,1.78986 -9,3c-2.06586,0.85571 -3.07613,0.61731 -4,1c-1.30656,0.5412 -2.08025,0.31075 -5,1c-2.17625,0.51375 -2,2 -2,2c-1,1 -2.29289,3.29289 -3,4c-0.70711,0.70711 -1.07613,0.61731 -2,1c-1.30656,0.5412 -1,2 -1,2c-1,1 -1.09789,2.82443 -3,4c-0.85065,0.52573 -1,1 -1,1c0,0 0,1 -1,2c-1,1 -1,2 -1,2c0,1 0,2 0,3c0,1 1,2 1,1c0,-1 -2,0 -3,0c-1,0 -4,0 -5,0c-3,0 -5,0 -5,-1c0,-1 0,-2 0,-3c0,0 0,-1 0,-2c0,-1 0,-2 0,-2c0,-1 0,-3 1,-4c0,0 1,0 1,-1c0,-1 -0.70711,-2.29289 0,-3c0.70711,-0.70711 2,-1 2,-2c0,-1 1,-2 1,-2c0,-1 0.29289,-1.29289 1,-2c0.70711,-0.70711 0,-2 0,-2c1,-1 0.61731,-2.07613 1,-3c0.5412,-1.30656 1.4588,-0.69344 2,-2c0.38269,-0.92387 0,-2 1,-3c1,-1 1,-2 2,-3c1,-1 1.82375,-2.48625 4,-3c0.97325,-0.22975 2,-1 2,-1c2,-1 4,-1 4,-1l0,0l1,0"/>
  <path fill="none" stroke="#ff0000" stroke-width="20" id="svg_23" d="m358.67829,141.47636c0,-1 -1,-2 -3,-3c-2,-1 -3,-1 -5,-1c-3,0 -5,1 -5,1c-1,1 -1,3 -1,5c0,1 0,2 0,4c0,3 0.69254,4.186 2,6c0.8269,1.14726 1.15225,2.23463 3,3c1.30655,0.5412 2,2 2,2c1,0 3,0 4,0c1,0 2,0 3,0c1,0 1.02676,0.22975 2,0c2.17624,-0.51375 3,-3 3,-4c0,-3 1.49347,-4.87856 2,-8c0.48056,-2.96126 0,-4 0,-6c0,-1 0,-2 -1,-3c-1,-1 -0.82376,-1.48625 -3,-2c-0.97324,-0.22975 -2,-1 -4,-1c-1,0 -2.15225,-0.76537 -4,0c-1.30655,0.5412 -2.186,2.69255 -4,4c-2.29453,1.65381 -2,5 -2,8c0,2 0,4 0,7c0,2 0.82443,2.09789 2,4c0.52573,0.85065 2,2 3,2c2,0 4,0 6,0c1,0 2,0 5,0c0,0 2.07611,-0.61731 3,-1c1.30655,-0.5412 2,-2 3,-3c1,-1 2,-4 2,-5c0,-3 0,-4 0,-4c0,-3 0.14728,-4.1731 -1,-5c-1.814,-1.30745 -3,-3 -3,-3c-2,-1 -4,-1 -6,-1c-1,0 -2,0 -2,0c-1,0 -2.07611,-0.38269 -3,0c-1.30655,0.5412 -3,3 -4,5l-1,1"/>
  <path fill="none" stroke="#ff0000" stroke-width="20" id="svg_24" d="m145.67829,231.47636c0,-1 0,-1 0,-2c0,-1 -0.29289,-1.29289 -1,-2c-0.70711,-0.70711 0,-3 0,-4c0,-1 0,-1 0,-3c0,-1 0,-2 0,-2c0,-1 -0.38269,-3.07613 0,-4c0.5412,-1.30656 2,-2 2,-4c0,0 0.29289,-0.29289 1,-1c0.70711,-0.70711 0.47427,-1.14935 1,-2c1.17557,-1.90211 2.4588,-0.69344 3,-2c0.38269,-0.92387 0.15224,-1.23463 2,-2c1.30656,-0.5412 1.76993,-1.54863 6,-3c4.82303,-1.65482 8.87856,-2.49345 12,-3c0.98709,-0.16019 1.69345,-0.4588 3,-1c4.61938,-1.91342 15,0 24,0l4,0l1,0l0,0"/>
  <path fill="none" stroke="#ff0000" stroke-width="20" id="svg_26" d="m361.67829,130.47636c-1,-1 -1,-2 -1,-3c0,-1 -1,-1 -1,-2c0,-1 0,-2 0,-3c0,-1 0,-3 0,-4c0,0 0,-1 0,-3c0,-1 0,-2 0,-4c0,-1 0,-1 0,-3c0,-2 0,-4 0,-5c0,-1 0,-2 0,-5c0,-1 0,-3 0,-4c0,-1 1.9176,-3.38687 3,-6c0.76538,-1.84776 0.61731,-3.07612 1,-4c0.5412,-1.30656 1.71411,-2.21168 4,-5c1.79318,-2.18734 3.69345,-4.4588 5,-5c1.84775,-0.76537 2.54916,-1.95517 6,-3c0.95709,-0.28979 1,-1 1,-1c2,0 3.29291,0.70711 4,0c0.70709,-0.70711 2,-2 5,-3c3,-1 5,-1 7,-1c0,0 0.22977,1.02675 0,2c-0.51373,2.17626 -1.67963,3.02583 -2,5c-0.50653,3.12144 -1.4588,4.69344 -2,6c-0.38269,0.92388 0,2 0,3c0,0 0.22977,1.02675 0,2c-0.51373,2.17625 -2.2565,4.797 -3,6c-1.66251,2.68999 -1,4 -1,6c0,2 -0.61731,3.07612 -1,4c-0.5412,1.30656 -1.84085,3.17163 -3,7c-1.04483,3.45084 -3,3 -3,4c0,1 -0.23462,2.15224 -1,4c-1.0824,2.61313 -2.33749,4.31001 -4,7c-1.487,2.40601 -3.4588,4.69344 -4,6c-0.38269,0.92388 -0.18875,1.41529 -1,2c-2.56537,1.84901 -3.49347,3.87856 -4,7c-0.16019,0.98709 -1,1 -1,1c-1,2 -2.95517,3.54915 -4,7c-0.28979,0.95709 1,1 2,1c2,0 7,0 11,0c3,0 4,0 5,0c0,0 0.41528,0.18875 1,1c1.84903,2.56537 4.88153,2.19028 8,4c1.93399,1.12234 1.69345,2.4588 3,3c1.84775,0.76537 3.29291,0.29289 4,1c0.70709,0.70711 1.5387,1.60643 4,3c3.58792,2.03145 8.10699,3.08099 12,4c2.17624,0.51375 4.87857,3.49345 8,4c2.96127,0.48055 4,0 4,0c1,0 2,0 3,0c1,0 2.14935,0.52573 3,0c1.9021,-1.17557 2,-2 2,-2c1,-1 1.29291,-1.29289 2,-2c0.70709,-0.70711 2.5412,0.30656 2,-1c-0.38269,-0.92387 -2,-1 -4,-1c0,0 -2.69342,-1.4588 -4,-2c-0.92389,-0.38269 -2,-1 -4,-2c-4,-2 -6.76108,-2.41589 -10,-4c-2.84073,-1.38936 -6,-2 -9,-4c-3,-2 -4.69345,-2.4588 -6,-3c-0.92389,-0.38269 -2.01291,-0.83981 -3,-1c-3.12143,-0.50655 -4,-1 -4,-1c-1,0 -4.03873,-0.51945 -7,-1c-3.12143,-0.50655 -5,-1 -7,-1c-2,0 -5.0979,-1.82443 -7,-3c-0.85065,-0.52573 -2.29291,-0.70711 -3,0c-0.70709,0.70711 -2.87857,3.49345 -6,4c-1.97418,0.32036 -2.69345,1.4588 -4,2c-0.92389,0.38269 -2,0 -2,1c0,1 -3.90778,1.49623 -8,2c-1.98502,0.24437 -2.03873,0.51945 -5,1c-3.12143,0.50655 -7.31,0.33749 -10,2c-2.40601,1.487 -5.02249,1.63345 -8,2c-4.09222,0.50377 -7,2 -9,2c-1,0 -2,0 -4,1c-2,1 -3.87857,1.49345 -7,2c-1.97418,0.32036 -3,0 -5,0c-2,0 -4,1 -7,1c-3,0 -5,0 -6,0c-2,0 -4.82376,0.48625 -7,1c-3.89301,0.91901 -8,2 -10,2c-3,0 -6,1 -8,1c-2,0 -3,0 -4,0c-2,0 -5.01291,-0.16019 -6,0c-3.12143,0.50655 -4.15225,0.23463 -6,1c-1.30655,0.5412 -3,2 -5,2c-1,0 -1,1 -3,1c-3,0 -8.186,-0.30745 -10,1c-1.14728,0.8269 -2.02582,0.67964 -4,1c-3.12143,0.50655 -4.94366,1.18834 -8,2c-4.92819,1.30876 -6.82376,2.48625 -9,3c-0.97324,0.22975 -2.07611,-0.38269 -3,0c-1.30655,0.5412 -2,1 -4,1c-2,0 -3.82376,1.48625 -6,2c-1.9465,0.4595 -2,0 -4,0c-3,0 -5.02582,0.67964 -7,1c-3.12143,0.50655 -5.82376,1.48625 -8,2c-0.97324,0.22975 -3.82376,1.48625 -6,2c-0.97325,0.22975 -1.29289,0.29289 -2,1c-0.70711,0.70711 -2,0 -4,1c-2,1 -2.29289,2.29289 -3,3c-0.70711,0.70711 -2.29289,-0.70711 -3,0c-0.70711,0.70711 -0.29289,1.29289 -1,2c-0.70711,0.70711 -0.85274,2.1731 -2,3c-1.814,1.30745 -2.4588,1.69344 -3,3c-0.38269,0.92387 -1.29289,1.29289 -2,2c-0.70711,0.70711 -1.2565,1.797 -2,3c-1.66251,2.68999 -2,3 -3,5c-1,2 -2.29289,1.29289 -3,2c-0.70711,0.70711 -0.4588,1.69344 -1,3c-0.38269,0.92387 0.38269,2.07613 0,3c-0.5412,1.30656 -2,1 -2,2c0,0 -1,1 -1,2c0,1 0,2 0,2c-1,2 -1,3 -1,4c0,0 0,1 0,2c0,1 0,2 0,2c0,1 0,2 0,3c0,1 -1,2 -1,3c0,1 0,2 0,2c0,1 0,2 0,3c0,1 0,1 0,2c0,1 0,2 0,3c0,0 1,1 1,2c0,1 0.29289,0.29289 1,1c0.70711,0.70711 1,1 1,1c1,0 2,0 2,0c0,1 1,1 2,1c1,0 2,0 2,0c1,0 2,0 3,0c1,0 1,-1 1,-1c1,0 2,0 3,0c0,0 0.29289,-0.29289 1,-1c0.70711,-0.70711 2,0 3,0l1,0l0,-1"/>
  <polyline fill="none" stroke="#ff0000" stroke-width="20" points="376.6782913208008,90.47635984420776 375.6782913208008,90.47635984420776 " id="svg_27" stroke-linecap="round"/>
  <path fill="none" stroke="#ff0000" stroke-width="20" id="svg_28" d="m375.67829,86.47636c0,2 -2,4 -2,5c0,1 -0.95517,1.54916 -2,5c-0.57956,1.91418 -0.75015,7.46259 -4,10c-1.57642,1.23083 -2,1 -2,2l-1,0l0,1l0,1"/>
  <path fill="none" stroke="#ff0000" stroke-width="20" id="svg_29" d="m188.67829,208.47636c0,1 -1,2 -1,6c0,4 -0.30655,5.4588 1,6c0.92389,0.38269 3.0535,0.4595 5,0c4.35251,-1.02748 7.34619,-5.70546 9,-8c1.30746,-1.814 2.83981,-6.01291 3,-7c0.50653,-3.12144 1.51944,-5.03874 2,-8c0.50653,-3.12144 2,-3 2,-4l1,-1"/>
  <path fill="none" stroke="#000000" stroke-width="5" stroke-opacity="null" fill-opacity="null" id="svg_33" d="m180.67829,193.47636c0,0 -0.82376,0.48625 -3,1c-1.9465,0.4595 -2.07611,-0.38269 -3,0c-1.30655,0.5412 -3.22836,1.85194 -6,3c-1.30656,0.5412 -1,1 -1,1c0,1 -0.4588,1.69344 -1,3c-0.38269,0.92387 -3,1 -3,2c0,1 0,2 0,3c0,0 0,1 0,2c0,1 0,2 0,2c0,0 1.29289,1.29289 2,2c0.70711,0.70711 2.4588,-0.30656 3,1c0.38269,0.92387 1,1 2,1c1,0 0.69345,0.4588 2,1c0.92389,0.38269 0.29291,1.29289 1,2c0.70709,0.70711 2,0 2,1c0,0 0,1 0,2c0,1 0,2 0,2c0,1 -1,1 -1,2c0,1 -0.38269,2.07613 0,3c0.5412,1.30656 1.02676,0.77025 2,1c2.17624,0.51375 3,1 3,1c1,0 2,0 3,0c1,0 1,0 2,0c1,0 2.4588,-0.69344 3,-2c0.38269,-0.92387 1,-1 2,-1c1,0 1,0 2,0c0,0 1,0 2,0c1,0 2,0 2,0c1,0 2.07611,0.38269 3,0c1.30655,-0.5412 1,-1 1,-2c0,-1 0,-2 0,-2c0,-1 0,-2 0,-3c0,-1 0,-1 0,-1c0,-1 0.70709,-2.29289 0,-3c-0.70709,-0.70711 -2,0 -2,-1c0,0 0,-1 0,-2c0,-1 0.29291,-1.29289 1,-2c0.70709,-0.70711 1,0 1,0c0,-1 0.4588,-1.69344 1,-3c0.38269,-0.92387 0.4588,-0.69344 1,-2c0.38269,-0.92387 0,-2 0,-3c0,0 0,-1 0,-2c0,-1 1,-1 1,-2c0,0 0,-1 -1,-2c-1,-1 -1,-2 -2,-2c0,0 0.30655,-2.4588 -1,-3c-0.92389,-0.38269 -2,-1 -3,-1c0,0 -1,0 -2,0c-1,0 -2,0 -2,0c-1,0 -2,0 -4,0c0,0 -1,0 -1,0c-1,0 -3,0 -3,0c0,1 -1,1 -1,2l-1,0l-1,0"/>
  <path fill="none" stroke="#000000" stroke-width="5" stroke-opacity="null" fill-opacity="null" id="svg_34" d="m177.67829,210.47636c0,1 0,2 2,4c0,0 0,0 2,0c1,0 2,0 2,0c1,0 2,0 2,-1c0,-1 0,-2 0,-3c0,0 -0.82443,-0.09789 -2,-2c-0.52573,-0.85065 0,-2 -1,-2c-1,0 -2.29291,-0.70711 -3,0c-0.70709,0.70711 0,3 0,4l0,1l0,1l0,0"/>
  <path fill="none" stroke="#000000" stroke-width="5" stroke-opacity="null" fill-opacity="null" id="svg_35" d="m194.71012,205.27966c0,-0.36496 0,-0.72992 -0.36496,-0.72992c-0.36496,0 -0.72992,0 -0.72992,0c-0.36496,0 -0.59024,0.39275 -0.72992,0.72992c-0.19751,0.47684 -0.53241,0.61804 -0.72992,1.09489c-0.13965,0.33717 0,0.72992 0,1.09488c0,0.36496 0,1.45985 0,2.18977c0,0.72992 0,0.72992 0,1.45985c0,0.36496 0,0.36496 0.36496,0.36496c0.36496,0 0.61804,0.16745 1.09488,0.36496c0.33719,0.13966 0.72992,0 1.09488,0c0.36499,0 0.53244,0.11188 0.72995,-0.36496c0.27933,-0.67438 0.36496,-1.09489 0.36496,-1.09489c0.36496,-0.72992 0.72992,-1.09488 0.72992,-1.45984c0,-0.36497 0,-0.72993 0,-1.45985c0,-0.36496 0,-0.72992 0,-0.72992c-0.36496,0 -0.47186,-0.10689 -0.72992,-0.36496c-0.25806,-0.25807 -0.72992,0 -0.72992,0c-0.36499,0 -0.36499,0.36496 -0.36499,0.72992l0,0.36496l-0.36496,0"/>
  <path fill="none" stroke="#000000" stroke-width="5" stroke-opacity="null" fill-opacity="null" id="svg_36" d="m181.20652,210.38913c0.36499,0 0.1069,0.47186 0.36499,0.72993c0.25806,0.25807 -0.15118,0.21379 0.36496,0.72992c0.51614,0.51613 1.09488,0 1.09488,-0.36496c0,-0.36496 0,-0.72993 0.36496,-0.72993c0,0 0,0.36497 0.36496,1.09489l-0.36496,0"/>
  <path fill="none" stroke="#000000" stroke-width="5" stroke-opacity="null" fill-opacity="null" id="svg_37" d="m179.01676,229.36717c-0.36496,0 -1.27234,0.66559 -1.45984,1.45984c-0.08386,0.35521 0,1.09489 0,1.45985c0,0.72992 0.79779,0.98268 1.45984,1.45985c0.4187,0.30179 1.34796,1.26233 1.8248,1.45984c0.67438,0.27934 1.09961,0.05846 1.45987,0c1.13919,-0.18486 1.09488,-0.72992 1.45984,-1.45984c0,0 0.90738,-1.03056 1.09488,-1.82481c0.25156,-1.0656 -0.25806,-1.56674 0,-1.82481c0.25806,-0.25807 0.45059,0.05556 0.72992,0.72992c0.39505,0.95372 0.95282,1.88295 1.45987,2.91971c0.57813,1.18208 1.09488,1.09488 1.45984,1.09488c0.36496,0 0.72992,0 0.72992,0c0.36496,-0.36496 1.08487,-0.96622 1.45987,-2.55473c0.25156,-1.06558 0.57874,-2.40356 1.09488,-2.91969c0.25806,-0.25807 0.1311,1.11372 0.36496,2.55473c0.18488,1.13921 0.72992,1.45985 1.45984,1.82481c0,0 0.2811,-0.00977 0.36496,-0.36496c0.1875,-0.79425 0.72992,-1.09489 0.72992,-1.09489c0.36499,-1.09488 0.36499,-1.45985 1.09491,-2.18977l0,-0.36496l0,-0.36496l0,-0.36496"/>
  <path fill="none" stroke="#000000" stroke-width="5" stroke-opacity="null" fill-opacity="null" id="svg_38" d="m172.81241,253.81964c0,-0.36496 0.15286,-0.8828 0.72992,-1.45985c0.57706,-0.57706 1.10608,-0.69792 2.18976,-1.09488c1.84549,-0.67601 5.0773,-2.26894 9.48901,-4.01459c2.89951,-1.14729 4.37955,-1.82481 5.47446,-2.55473c0,0 0.14117,-0.3349 1.09488,-0.72993c0.33719,-0.13966 1.9892,-0.89435 2.91968,-1.82481c0.93048,-0.93048 1.9003,-1.75642 2.55475,-2.55473c0.83426,-1.01762 1.8248,-2.18976 2.55475,-2.91969c1.09488,-1.09486 2.4838,-2.35342 4.01456,-2.91969c1.41132,-0.52208 1.99792,-0.78444 2.18979,-1.09489c0.42905,-0.6942 1.56674,-0.10689 1.8248,-0.36496c0.25806,-0.25807 0.36496,-0.72992 0.36496,-0.72992c0.36499,-0.36496 2.4884,-0.95145 4.01459,-2.18977c1.02185,-0.82912 0.72995,-1.45985 0.72995,-1.45985c0,-0.36496 0.36496,-1.09488 0.36496,-1.45985c0,-0.72992 0,-1.45984 0,-2.55473c0,-1.45984 0,-2.18977 0.36496,-3.28465c0.36496,-1.09489 1.45984,-1.45985 1.8248,-1.82481c0.36496,-0.36496 1.25851,0.29404 1.8248,1.82481c0.52209,1.41132 0.36499,2.55473 0.36499,3.28465c0,0.72993 0,1.09489 0,1.82481c0,0.36496 -0.67621,0.79309 -1.09491,1.09489c-0.66202,0.47717 -0.83682,0.47185 -1.09488,0.72992c-0.25806,0.25807 0.36496,0.36496 1.09488,0.36496c0.36496,0 0.72992,0.36496 1.82483,0.72992c0,0 0.36496,0 1.09488,0.72993c0,0 0.36496,0 0.36496,0.36496c0,0.72992 0,1.09488 0,1.09488c0,0.36497 -1.45984,0.36497 -1.8248,0.36497l-1.09491,0l-0.72992,-0.36497"/>
  <path fill="none" stroke="#000000" stroke-width="5" stroke-opacity="null" fill-opacity="null" id="svg_39" d="m172.44742,251.99483c0,-0.36496 -0.36496,-0.36496 -0.72992,-0.36496c0,0 -0.36496,0 -0.72992,0c-0.36496,0 -0.72992,0 -1.45984,0c-0.72993,0 -0.83682,-0.25807 -1.09489,0c-0.25807,0.25807 0,0.72992 0,1.09488c0,0.72993 0.36496,1.09489 0.36496,1.45985c0,0 0.72993,0.36496 1.09489,0.36496c0.36496,0 0.1069,0.47185 0.36496,0.72992c0.25806,0.25807 0.72992,0 1.09488,0c0.36496,0 0.72992,0 1.09488,0c0.36499,0 0.47189,-0.10689 0.72995,-0.36496c0.25806,-0.25807 0.36496,-0.72992 0.72992,-1.09488c0.36496,-0.36496 0.36496,-1.09489 0.72992,-1.09489l0,-0.36496l0,-0.72992l0,-0.36496"/>
  <path fill="none" stroke="#000000" stroke-width="5" stroke-opacity="null" fill-opacity="null" id="svg_40" d="m159.67376,235.57153c0,0.72992 0.17308,1.14938 0.36496,1.45984c0.42905,0.6942 1.44646,0.78848 2.91971,1.09489c2.17346,0.45204 3.3978,0.12317 4.37955,0.72992c0.43904,0.27135 0.66559,0.54242 1.45984,0.72992c1.0656,0.25156 1.82481,0.36496 2.18977,0.36496c0.36496,0 0.75974,-0.29353 2.18979,0c2.72269,0.55885 5.88956,1.17393 8.75909,1.82481c1.12552,0.25529 1.8248,0.36496 2.91968,0.36496c1.45987,0 3.64963,0.36497 6.9343,0.36497c2.18976,0 3.97031,-0.7742 4.74451,0c0.25806,0.25807 1.09488,0.36496 2.18976,0.36496c0.72995,0 0.72995,0 1.09491,0c0.36496,0 1.09488,0 2.55472,0c0,0 0.39273,-0.13966 0.72992,0c0.95367,0.39503 0.72992,1.09488 1.09491,1.09488c0.36496,0 0.72992,0 0.72992,0c0.36496,0 0.36496,0 0.72992,0c0.36496,0 0.72992,0 1.09488,0c0,0 0.36496,0 0.72992,0c0.36496,0 0.53241,0.11188 0.72992,-0.36496c0.27933,-0.67436 0,-1.09488 0,-1.45985c0,-0.36496 0.25806,-0.83681 0,-1.09488c-0.25806,-0.25807 -0.61804,-0.16745 -1.09488,-0.36496c-0.33719,-0.13966 -0.36496,0 -0.72992,0c-0.72992,0 -1.09488,0 -1.09488,0.36496l0,0.36496l0,0.36496l0,0.36496"/>
  <path fill="none" stroke="#000000" stroke-width="5" stroke-opacity="null" fill-opacity="null" id="svg_41" d="m159.3088,235.20656c0,0 0.07669,0.3936 -0.36496,1.45985c-0.3123,0.75395 -0.61804,1.6273 -1.09489,1.82481c-0.33717,0.13966 -0.72992,0 -0.72992,0c-0.72992,-0.36496 -1.76074,-0.76566 -2.18977,-1.45985c-0.19186,-0.31046 0,-1.09488 0,-1.82481c0,-0.36496 -0.25807,-1.20177 0,-1.45984c0.25807,-0.25807 0.72992,0 0.72992,0c0.72993,0 1.09489,0 1.45985,0c0.36496,0 0.72992,0 1.09489,0l0.36496,0.72992"/>
  <path fill="none" stroke="#000000" stroke-width="5" stroke-opacity="null" fill-opacity="null" id="svg_42" d="m159.3088,234.47664c0,0.36496 -0.10689,0.98799 -0.36496,0.72992c-0.25807,-0.25807 -0.36496,-0.72992 -0.36496,-1.09488c0,-0.36496 0,-0.36496 0,-0.72992c0,-0.36497 0,0 0,0.36496c0,0 0.21379,-0.15117 0.72992,0.36496c0.25807,0.25807 0.10689,0.83681 0.36496,1.09488c0.25807,0.25807 0.36496,0 0.36496,0l0.36497,0"/>
 </g>
</svg>